<svg width="40" height="40" viewBox="0 0 40 40" fill="none" xmlns="http://www.w3.org/2000/svg">
<g clip-path="url(#clip0_2009_227)">
<path d="M29.5981 22.9846C29.5202 22.9472 26.6041 21.5113 26.0859 21.3248C25.8743 21.2488 25.6477 21.1746 25.4067 21.1746C25.0129 21.1746 24.6821 21.3709 24.4245 21.7563C24.1332 22.1893 23.2513 23.2201 22.9789 23.528C22.9433 23.5687 22.8947 23.6172 22.8656 23.6172C22.8395 23.6172 22.3882 23.4314 22.2516 23.372C19.1234 22.0132 16.749 18.7456 16.4234 18.1945C16.3769 18.1153 16.375 18.0793 16.3746 18.0793C16.386 18.0374 16.4912 17.9319 16.5455 17.8775C16.7043 17.7204 16.8764 17.5132 17.0429 17.3128C17.1217 17.2179 17.2007 17.1228 17.2782 17.0332C17.5198 16.7522 17.6273 16.534 17.752 16.2813L17.8173 16.15C18.1217 15.5452 17.8617 15.0348 17.7777 14.87C17.7087 14.732 16.4774 11.7604 16.3465 11.4481C16.0317 10.6948 15.6158 10.344 15.0377 10.344C14.9841 10.344 15.0377 10.344 14.8128 10.3535C14.5389 10.365 13.0473 10.5614 12.3878 10.9771C11.6885 11.418 10.5054 12.8235 10.5054 15.2952C10.5054 17.5197 11.9171 19.6201 12.5232 20.4189C12.5382 20.4391 12.5659 20.48 12.606 20.5387C14.9272 23.9285 17.8208 26.4407 20.7542 27.6126C23.5782 28.7406 24.9155 28.871 25.6758 28.871H25.6759C25.9954 28.871 26.2511 28.8459 26.4767 28.8237L26.6198 28.8101C27.5954 28.7236 29.7393 27.6127 30.2269 26.2575C30.6111 25.1901 30.7124 24.0239 30.4568 23.6006C30.2817 23.3128 29.98 23.168 29.5981 22.9846Z" fill="#694B41"/>
<path d="M20.355 0C9.52179 0 0.708281 8.74727 0.708281 19.4991C0.708281 22.9766 1.63893 26.3806 3.40192 29.3599L0.0275023 39.3138C-0.0353548 39.4994 0.0113984 39.7045 0.148671 39.8443C0.247762 39.9455 0.382178 40 0.51945 40C0.572048 40 0.625035 39.9921 0.676723 39.9756L11.0559 36.6774C13.8962 38.1949 17.1063 38.996 20.3552 38.996C31.1874 38.9961 40 30.2497 40 19.4991C40 8.74727 31.1874 0 20.355 0ZM20.355 34.9343C17.298 34.9343 14.3371 34.0516 11.7919 32.3814C11.7063 32.3252 11.607 32.2964 11.507 32.2964C11.4541 32.2964 11.4011 32.3044 11.3496 32.3208L6.15023 33.9735L7.82867 29.0217C7.88296 28.8614 7.85581 28.6847 7.75581 28.5481C5.81763 25.8997 4.79309 22.7708 4.79309 19.4991C4.79309 10.987 11.7741 4.06182 20.3549 4.06182C28.9346 4.06182 35.9149 10.987 35.9149 19.4991C35.915 28.0101 28.9349 34.9343 20.355 34.9343Z" fill="#694B41"/>
</g>
<defs>
<clipPath id="clip0_2009_227">
<rect width="40" height="40" fill="white"/>
</clipPath>
</defs>
</svg>
